<svg xmlns="http://www.w3.org/2000/svg" width="584" height="584" viewBox="0 0 584 584">
  <path id="clock" d="M575,288a287.015,287.015,0,1,0-84.065,202.935A286.113,286.113,0,0,0,575,288Zm-52.182,0a234.815,234.815,0,1,1-68.776-166.043A233.969,233.969,0,0,1,522.818,288ZM261.909,131.455V288a26.076,26.076,0,0,0,14.428,23.325L380.7,363.507a26.1,26.1,0,1,0,23.351-46.677l-89.961-44.955V131.455a26.091,26.091,0,1,0-52.182,0Z" transform="translate(4 4)" fill="none" stroke="#cdd1db" stroke-width="10"/>
</svg>
